<svg width="49" height="49" viewBox="0 0 49 49" fill="none" xmlns="http://www.w3.org/2000/svg">
<path d="M14.5088 36.8359C11.1755 36.8359 8.34212 35.6693 6.00879 33.3359C3.67546 31.0026 2.50879 28.1693 2.50879 24.8359C2.50879 21.5026 3.67546 18.6693 6.00879 16.3359C8.34212 14.0026 11.1755 12.8359 14.5088 12.8359H34.5088C37.8421 12.8359 40.6755 14.0026 43.0088 16.3359C45.3421 18.6693 46.5088 21.5026 46.5088 24.8359C46.5088 28.1693 45.3421 31.0026 43.0088 33.3359C40.6755 35.6693 37.8421 36.8359 34.5088 36.8359H14.5088ZM14.5088 33.8359H34.5088C37.0088 33.8359 39.1338 32.9609 40.8838 31.2109C42.6338 29.4609 43.5088 27.3359 43.5088 24.8359C43.5088 22.3359 42.6338 20.2109 40.8838 18.4609C39.1338 16.7109 37.0088 15.8359 34.5088 15.8359H14.5088C12.0088 15.8359 9.88379 16.7109 8.13379 18.4609C6.38379 20.2109 5.50879 22.3359 5.50879 24.8359C5.50879 27.3359 6.38379 29.4609 8.13379 31.2109C9.88379 32.9609 12.0088 33.8359 14.5088 33.8359ZM34.5588 29.8859C35.9588 29.8859 37.1505 29.3943 38.1338 28.4109C39.1171 27.4276 39.6088 26.2359 39.6088 24.8359C39.6088 23.4359 39.1171 22.2443 38.1338 21.2609C37.1505 20.2776 35.9588 19.7859 34.5588 19.7859C33.1588 19.7859 31.9671 20.2776 30.9838 21.2609C30.0005 22.2443 29.5088 23.4359 29.5088 24.8359C29.5088 26.2359 30.0005 27.4276 30.9838 28.4109C31.9671 29.3943 33.1588 29.8859 34.5588 29.8859Z" fill="#FF0100"/>
</svg>
